<?xml version="1.0" encoding="UTF-8" standalone="no" ?>
<!DOCTYPE svg PUBLIC "-//W3C//DTD SVG 1.1//EN" "http://www.w3.org/Graphics/SVG/1.1/DTD/svg11.dtd">
<svg xmlns="http://www.w3.org/2000/svg" xmlns:xlink="http://www.w3.org/1999/xlink" version="1.1" width="50" height="50" viewBox="1 1 48	48" xml:space="preserve">
<g transform="matrix(0.1905 0 0 0.1905 25 25)">
<g style=""   >
		<g transform="matrix(12.5 0 0 12.5 0 0)">
<path style="stroke: none; stroke-width: 1; stroke-dasharray: none; stroke-linecap: butt; stroke-dashoffset: 0; stroke-linejoin: miter; stroke-miterlimit: 4; fill: #157ff3; fill-rule: nonzero; opacity: 1;"  transform=" translate(-12, -12)" d="M 12 2 Q 11.673 2 11.358 2.005 L 10.742 2.022 L 10.443 2.035 L 9.864 2.069 L 9.311 2.115 C 4.526 2.579 2.579 4.526 2.115 9.311 L 2.069 9.864 L 2.035 10.443 Q 2.027 10.59 2.022 10.742 L 2.005 11.358 L 2.001 11.676 L 2 12 Q 2 12.327 2.005 12.642 L 2.022 13.258 L 2.035 13.557 L 2.069 14.136 L 2.115 14.689 C 2.579 19.474 4.526 21.421 9.311 21.885 L 9.864 21.931 L 10.443 21.965 Q 10.59 21.973 10.742 21.978 L 11.358 21.995 L 12 22 L 12.642 21.995 L 13.258 21.978 L 13.557 21.965 L 14.136 21.931 L 14.689 21.885 C 19.474 21.421 21.421 19.474 21.885 14.689 L 21.931 14.136 L 21.965 13.557 Q 21.973 13.41 21.978 13.258 L 21.995 12.642 L 22 12 L 21.995 11.358 L 21.978 10.742 L 21.965 10.443 L 21.931 9.864 L 21.885 9.311 C 21.421 4.526 19.474 2.579 14.689 2.115 L 14.136 2.069 L 13.557 2.035 L 13.258 2.022 L 12.642 2.005 L 12.324 2.001 Z" stroke-linecap="round" />
</g>
		<g transform="matrix(10.5 0 0 6.9285 -0.25 -47.9645)">
<path style="stroke: none; stroke-width: 0; stroke-dasharray: none; stroke-linecap: butt; stroke-dashoffset: 0; stroke-linejoin: miter; stroke-miterlimit: 4; fill: #74c9ff; fill-rule: nonzero; opacity: 1;" vector-effect="non-scaling-stroke"  transform=" translate(-12, -12)" d="M 12 2 Q 11.673 2 11.358 2.005 L 10.742 2.022 L 10.443 2.035 L 9.864 2.069 L 9.311 2.115 C 4.526 2.579 2.579 4.526 2.115 9.311 L 2.069 9.864 L 2.035 10.443 Q 2.027 10.59 2.022 10.742 L 2.005 11.358 L 2.001 11.676 L 2 12 Q 2 12.327 2.005 12.642 L 2.022 13.258 L 2.035 13.557 L 2.069 14.136 L 2.115 14.689 C 2.579 19.474 4.526 21.421 9.311 21.885 L 9.864 21.931 L 10.443 21.965 Q 10.59 21.973 10.742 21.978 L 11.358 21.995 L 12 22 L 12.642 21.995 L 13.258 21.978 L 13.557 21.965 L 14.136 21.931 L 14.689 21.885 C 19.474 21.421 21.421 19.474 21.885 14.689 L 21.931 14.136 L 21.965 13.557 Q 21.973 13.41 21.978 13.258 L 21.995 12.642 L 22 12 L 21.995 11.358 L 21.978 10.742 L 21.965 10.443 L 21.931 9.864 L 21.885 9.311 C 21.421 4.526 19.474 2.579 14.689 2.115 L 14.136 2.069 L 13.557 2.035 L 13.258 2.022 L 12.642 2.005 L 12.324 2.001 Z" stroke-linecap="round" />
</g>
</g>
</g>
</svg>